<svg width="381" height="381" viewBox="0 0 381 381" fill="none" xmlns="http://www.w3.org/2000/svg">
<path d="M190.5 0C85.2641 0 0 85.2641 0 190.5C0 295.736 85.2641 381 190.5 381C295.736 381 381 295.736 381 190.5C381 85.2641 295.736 0 190.5 0ZM190.5 73.7419C227.832 73.7419 258.097 104.007 258.097 141.339C258.097 178.671 227.832 208.935 190.5 208.935C153.168 208.935 122.903 178.671 122.903 141.339C122.903 104.007 153.168 73.7419 190.5 73.7419ZM190.5 337.984C145.41 337.984 105.005 317.551 77.9667 285.596C92.4079 258.404 120.676 239.661 153.629 239.661C155.473 239.661 157.316 239.969 159.083 240.506C169.069 243.732 179.516 245.806 190.5 245.806C201.484 245.806 212.008 243.732 221.917 240.506C223.684 239.969 225.527 239.661 227.371 239.661C260.324 239.661 288.592 258.404 303.033 285.596C275.995 317.551 235.59 337.984 190.5 337.984Z" fill="#7F7F7F"/>
</svg>
